<svg width="512" height="512" viewBox="0 0 512 512" fill="none" xmlns="http://www.w3.org/2000/svg">
<rect width="512" height="512" fill="#2D2D2D"/>
<path d="M203 296.5C203 300.642 206.358 304 210.5 304C214.642 304 218 300.642 218 296.5V175C218 169.477 222.477 165 228 165H284C289.523 165 294 169.477 294 175V200.5C294 204.642 297.358 208 301.5 208C305.642 208 309 204.642 309 200.5V170C309 158.954 300.046 150 289 150H223C211.954 150 203 158.954 203 170V296.5Z" fill="#FFCC00"/>
<path d="M241 296.5C241 300.642 244.358 304 248.5 304C252.642 304 256 300.642 256 296.5V253C256 247.477 260.477 243 266 243H365C370.523 243 375 247.477 375 253V418C375 423.523 370.523 428 365 428H292.5C288.358 428 285 431.358 285 435.5C285 439.642 288.358 443 292.5 443H370C381.046 443 390 434.046 390 423V248C390 236.954 381.046 228 370 228H261C249.954 228 241 236.954 241 248V296.5Z" fill="#C0C0C0"/>
<path fill-rule="evenodd" clip-rule="evenodd" d="M245 443C256.046 443 265 434.046 265 423V344C265 332.954 256.046 324 245 324H142C130.954 324 122 332.954 122 344V423C122 434.046 130.954 443 142 443H245ZM240 339C245.523 339 250 343.477 250 349V418C250 423.523 245.523 428 240 428H147C141.477 428 137 423.523 137 418V349C137 343.477 141.477 339 147 339H240Z" fill="white"/>
<path d="M122 296.5C122 300.642 125.358 304 129.5 304C133.642 304 137 300.642 137 296.5V95C137 89.4772 141.477 85 147 85H365C370.523 85 375 89.4772 375 95V200.5C375 204.642 378.358 208 382.5 208C386.642 208 390 204.642 390 200.5V90C390 78.9543 381.046 70 370 70H142C130.954 70 122 78.9543 122 90V296.5Z" fill="#949494"/>
</svg>
